Coordinates
version=1
nRows=17
nColumns=34
inDegrees=yes

Units are S.I. units (second, meters, Newtons, ...)
If the header above contains a line with 'inDegrees', this indicates whether rotational values are in degrees (yes) or radians (no).

endheader
time	pelvis_tilt	pelvis_list	pelvis_rotation	pelvis_tx	pelvis_ty	pelvis_tz	hip_flexion_r	hip_adduction_r	hip_rotation_r	knee_angle_r	ankle_angle_r	subtalar_angle_r	mtp_angle_r	hip_flexion_l	hip_adduction_l	hip_rotation_l	knee_angle_l	ankle_angle_l	subtalar_angle_l	mtp_angle_l	lumbar_extension	lumbar_bending	lumbar_rotation	arm_flex_r	arm_add_r	arm_rot_r	elbow_flex_r	pro_sup_r	arm_flex_l	arm_add_l	arm_rot_l	elbow_flex_l	pro_sup_l
      0.00000000	     -0.43266734	      0.46089640	      8.30364319	      0.07214521	      0.98632735	     -0.10936887	      2.81477806	    -10.40440328	     -3.03336916	     11.68067250	      2.15027142	    -14.23203977	      0.00000000	      0.34142104	     -2.90465124	     -2.34615528	      5.05195899	      3.96402544	     -8.14913526	      0.00000000	     -1.08970895	     -0.74264357	      4.18163771	     47.53757056	     12.35530306	     62.73161950	    120.33693005	    112.01508927	     31.68686210	      9.09353094	     35.18198640	    115.78774481	     99.38550308
      0.01666670	     -0.54923253	      0.01916926	      8.25394606	      0.07102585	      0.98912894	     -0.11025392	      2.86327799	     -9.67428179	     -3.03548793	     10.62063711	      3.12024001	    -12.49066458	      0.00000000	      0.20672997	     -3.17421357	     -3.04206298	      4.42620818	      3.72655638	     -7.81360226	      0.00000000	     -0.74768560	     -0.51127597	      4.67709557	     49.49564561	     11.64171372	     65.04288680	    121.45904748	    111.89063491	     31.25254665	      9.98056889	     36.60992921	    116.30969385	     99.55548776
      0.03333330	     -0.96692825	      0.21278686	      7.74899235	      0.06689908	      0.98934586	     -0.10806023	      3.52096338	     -9.81370687	     -3.29084373	     10.11943295	      3.17530598	    -12.63257635	      0.00000000	      0.70180053	     -2.88708150	     -3.48229693	      4.32383559	      3.38451267	     -7.23445202	      0.00000000	     -0.81152237	     -1.33345824	      4.52491279	     49.37414825	     11.98128923	     66.01412644	    122.56680436	    111.92666320	     31.11712313	      9.35138317	     36.96859226	    116.47081574	     99.45579744
      0.05000000	     -1.01899321	      0.29928155	      7.47947003	      0.06746207	      0.98840945	     -0.10693704	      3.66968932	     -9.91906403	     -3.42514597	     10.10731663	      3.46019674	    -12.97146042	      0.00000000	      0.52242450	     -2.81511602	     -3.92812475	      3.74276345	      3.55176930	     -6.51501889	      0.00000000	     -1.21275095	     -1.59961908	      5.17888307	     49.70731971	     11.64252927	     66.94236213	    122.45479188	    112.01621127	     31.43160469	      9.07372558	     39.40070156	    117.31291779	     99.12205416
      0.06666670	     -1.26314158	      0.26317141	      7.13979721	      0.06629594	      0.98837688	     -0.10534037	      4.10871366	     -9.76039370	     -3.38378795	     10.33655909	      3.87662144	    -13.17853240	      0.00000000	      0.55403510	     -2.89071788	     -4.10942856	      3.28794214	      3.74696097	     -5.88512473	      0.00000000	     -1.23001437	     -1.67615496	      5.66388919	     49.53942568	     11.35620027	     67.70196153	    122.22001121	    112.04319176	     31.37023021	      8.84098470	     42.03014970	    118.36818449	     98.61264379
      0.08333330	     -1.33806796	      0.25307320	      6.96637308	      0.06746269	      0.98833994	     -0.10344955	      4.08402467	     -9.47704067	     -3.00793432	     10.37674874	      4.46402417	    -13.21857505	      0.00000000	      0.51632028	     -2.99616176	     -4.05372718	      3.05255901	      3.74153711	     -5.68403518	      0.00000000	     -1.35865049	     -1.80672180	      5.48984369	     49.30183931	     11.02526041	     68.06378887	    122.31136022	    112.04072714	     31.05009983	      8.28581635	     42.24628665	    117.78023708	     98.37754738
      0.10000000	     -1.56413674	      0.20901638	      6.70087384	      0.06703972	      0.98130255	     -0.10098953	      4.44375699	     -9.21075468	     -2.48485771	     10.78283238	      5.51867694	    -13.01658634	      0.00000000	      0.75169099	     -3.17248187	     -4.40419001	      3.10062243	      4.07545357	     -5.59146762	      0.00000000	     -0.97303846	     -1.79117224	      5.72303737	     49.49781074	     10.82758770	     68.29745912	    122.27821037	    111.87895100	     31.33241219	      8.20095091	     45.13364395	    118.74407342	     97.64583284
      0.11666670	     -1.79195470	      0.23572802	      6.66121340	      0.06545402	      0.98722570	     -0.09794660	      4.59222712	     -9.00045659	     -2.12842680	     10.73463198	      5.93587386	    -12.63644165	      0.00000000	      1.08575508	     -3.25614304	     -4.52833854	      3.12166382	      3.78108041	     -5.46840649	      0.00000000	     -0.87316119	     -2.10997373	      5.75773589	     49.49955605	     10.59873197	     68.35627332	    122.22915521	    111.56091927	     31.48913750	      7.87163487	     47.90853619	    119.09133694	     96.64556323
      0.13333330	     -1.86037343	      0.16646370	      6.70755771	      0.06407315	      0.98779136	     -0.09524085	      4.52608664	     -8.70193256	     -1.80993111	     10.47281016	      6.23337524	    -12.56864803	      0.00000000	      1.35888323	     -3.47465558	     -4.57286765	      3.19402666	      3.66851745	     -5.48527781	      0.00000000	     -1.03934956	     -2.30720988	      5.73750242	     49.60739886	     10.37675330	     68.20458991	    122.24626344	    111.50107280	     31.49543398	      7.64454450	     47.88297526	    119.10316936	     96.47073411
      0.15000000	     -1.72196072	      0.10631886	      6.68909853	      0.06954436	      0.99103092	     -0.09329032	      4.14545646	     -8.43079691	     -1.64623980	     10.12622298	      6.24007512	    -12.29485634	      0.00000000	      1.09451643	     -3.68172036	     -4.69819386	      2.96595989	      3.00602655	     -5.60866855	      0.00000000	     -1.41198379	     -2.43521598	      6.04257604	     49.20283276	     10.22127267	     67.94850032	    122.29819334	    111.01867715	     31.03354598	      7.53995733	     46.73424832	    118.55794304	     94.74971025
      0.16666670	     -1.74397121	     -0.05856928	      6.73125424	      0.07077382	      0.98704814	     -0.08966856	      3.87150639	     -8.04786138	     -1.61173692	      9.58126864	      6.47285450	    -12.26244819	      0.00000000	      1.13586107	     -4.01426915	     -4.66472442	      2.99463114	      2.98227220	     -5.59540459	      0.00000000	     -1.39398875	     -2.47463209	      5.96014085	     48.83790990	     10.38404473	     67.97838527	    122.38531114	    110.70817163	     30.86848273	      7.50641029	     44.99077734	    117.28748893	     93.48534736
      0.18333330	     -1.77563438	     -0.15689988	      6.78602408	      0.07101822	      0.99019770	     -0.08497850	      3.56941922	     -7.72735146	     -1.54053877	      9.01749453	      6.41328760	    -12.14615704	      0.00000000	      1.18252032	     -4.34364637	     -4.80245569	      3.03847953	      2.67482313	     -5.56093278	      0.00000000	     -1.34644846	     -2.69518137	      6.15039376	     48.35901776	     10.26136228	     68.08616282	    122.47089348	    110.63475341	     30.42514825	      7.47815378	     44.94077571	    117.76006237	     93.22379119
      0.20000000	     -1.92702577	     -0.20853314	      6.75625859	      0.07007081	      0.98927295	     -0.08047248	      3.61979735	     -7.45045131	     -1.64411373	      8.72656541	      6.45772261	    -12.17351376	      0.00000000	      1.29906945	     -4.59265673	     -4.79082814	      2.94670303	      2.64365552	     -5.55761393	      0.00000000	     -1.56459517	     -2.99881939	      6.37206773	     48.35298811	     10.32113523	     68.06811193	    122.47162246	    110.61894129	     30.34177852	      7.34674980	     44.78896318	    117.82560983	     93.17149299
      0.21666670	     -2.00995171	     -0.44231730	      6.67316145	      0.07285286	      0.98925024	     -0.07857263	      3.35825603	     -6.95851548	     -1.71567387	      7.99989481	      6.22251124	    -11.90730951	      0.00000000	      1.34349238	     -5.06544848	     -5.00794658	      2.86234974	      2.25802233	     -5.64360530	      0.00000000	     -1.47946472	     -2.67798966	      6.67260276	     48.07495129	     10.39827808	     68.08980236	    123.48947968	    110.28285234	     29.43043367	      7.86427218	     44.64120018	    120.26001434	     92.19916493
      0.23333330	     -2.08726852	     -0.47046071	      6.69470153	      0.07231578	      0.98876741	     -0.07382039	      3.32831762	     -6.66568208	     -1.77009394	      7.73870291	      6.22718775	    -11.89812863	      0.00000000	      1.42856939	     -5.32434747	     -4.98445013	      2.83206437	      2.16070741	     -5.60758890	      0.00000000	     -1.52500853	     -2.95144392	      6.80171177	     48.14253593	     10.51018643	     68.11088677	    123.46670451	    110.26552384	     29.34589752	      7.95288494	     44.66849241	    120.38913825	     92.15167708
      0.25000000	     -2.16729566	     -0.68616791	      6.72502827	      0.07129827	      0.98650621	     -0.06965719	      3.19485687	     -6.19398909	     -1.79243813	      7.20088546	      6.05997524	    -11.62359744	      0.00000000	      1.60273508	     -5.77331418	     -4.86242283	      2.92654840	      1.81660600	     -5.69167472	      0.00000000	     -1.78323045	     -2.69550319	      6.62993375	     48.59862596	     10.78122284	     68.68526555	    124.13437928	    109.76444157	     29.20976508	      8.17600617	     45.61696073	    122.52006570	     90.87652064
      0.26666670	     -2.23557878	     -0.87886833	      6.67911856	      0.07097138	      0.97977714	     -0.06479415	      3.20602149	     -5.72589297	     -1.90723205	      6.93088258	      6.22024070	    -11.73939024	      0.00000000	      1.73567848	     -6.22140187	     -4.90147171	      2.89478445	      1.82949521	     -5.75426546	      0.00000000	     -1.63594282	     -2.43646932	      6.51606429	     49.03064767	     11.17343924	     68.51231545	    124.22072877	    109.67322003	     29.43404579	      8.73512659	     45.94685444	    122.51287946	     90.70715506
